<svg width="89" height="82" viewBox="0 0 89 82" fill="none" xmlns="http://www.w3.org/2000/svg">
<g filter="url(#filter0_d_64_433)">
<rect x="5" y="0.882172" width="79" height="71.043" rx="30" fill="#EAF1FF"/>
</g>
<path d="M36.2986 45.904C35.9421 45.4995 35.7639 45.0403 35.7639 44.5264C35.7639 44.0136 35.9421 43.5861 36.2986 43.2439L39.8958 39.7904H25.9444C25.3935 39.7904 24.932 39.6112 24.56 39.2528C24.1867 38.8956 24 38.4526 24 37.9237C24 37.3948 24.1867 36.9511 24.56 36.5927C24.932 36.2355 25.3935 36.0569 25.9444 36.0569H39.8958L36.2986 32.6034C35.9097 32.2301 35.7153 31.7871 35.7153 31.2743C35.7153 30.7603 35.9097 30.3167 36.2986 29.9433C36.6551 29.57 37.101 29.3833 37.6364 29.3833C38.1705 29.3833 38.6157 29.5544 38.9722 29.8967L45.9722 36.617C46.1667 36.8036 46.3047 37.0059 46.3864 37.2236C46.4668 37.4414 46.5069 37.6748 46.5069 37.9237C46.5069 38.1726 46.4668 38.4059 46.3864 38.6237C46.3047 38.8415 46.1667 39.0437 45.9722 39.2304L38.9722 45.9507C38.5833 46.324 38.1296 46.4951 37.6111 46.464C37.0926 46.4329 36.6551 46.2462 36.2986 45.904ZM43.4444 54.7244C42.8935 54.7244 42.432 54.5452 42.06 54.1868C41.6867 53.8296 41.5 53.3866 41.5 52.8576C41.5 52.3287 41.6867 51.8857 42.06 51.5285C42.432 51.1701 42.8935 50.9909 43.4444 50.9909H55.1111V24.8564H43.4444C42.8935 24.8564 42.432 24.6772 42.06 24.3188C41.6867 23.9617 41.5 23.5186 41.5 22.9897C41.5 22.4608 41.6867 22.0171 42.06 21.6587C42.432 21.3015 42.8935 21.123 43.4444 21.123H55.1111C56.1806 21.123 57.0964 21.4882 57.8586 22.2187C58.6195 22.9505 59 23.8297 59 24.8564V50.9909C59 52.0176 58.6195 52.8968 57.8586 53.6286C57.0964 54.3591 56.1806 54.7244 55.1111 54.7244H43.4444Z" fill="#0099CC"/>
<defs>
<filter id="filter0_d_64_433" x="0" y="0.882172" width="89" height="81.043" filterUnits="userSpaceOnUse" color-interpolation-filters="sRGB">
<feFlood flood-opacity="0" result="BackgroundImageFix"/>
<feColorMatrix in="SourceAlpha" type="matrix" values="0 0 0 0 0 0 0 0 0 0 0 0 0 0 0 0 0 0 127 0" result="hardAlpha"/>
<feOffset dy="5"/>
<feGaussianBlur stdDeviation="2.5"/>
<feComposite in2="hardAlpha" operator="out"/>
<feColorMatrix type="matrix" values="0 0 0 0 0 0 0 0 0 0 0 0 0 0 0 0 0 0 0.17 0"/>
<feBlend mode="normal" in2="BackgroundImageFix" result="effect1_dropShadow_64_433"/>
<feBlend mode="normal" in="SourceGraphic" in2="effect1_dropShadow_64_433" result="shape"/>
</filter>
</defs>
</svg>
