<svg width="30" height="31" viewBox="0 0 30 31" fill="none" xmlns="http://www.w3.org/2000/svg">
<path d="M3.5 27.9959C2.8125 27.9959 2.22417 27.7513 1.735 27.2622C1.245 26.7722 1 26.1834 1 25.4959V12.9959C1 12.3084 1.245 11.7197 1.735 11.2297C2.22417 10.7405 2.8125 10.4959 3.5 10.4959H4.75V7.99591C4.75 6.26674 5.35958 4.79258 6.57875 3.57341C7.79708 2.35508 9.27083 1.74591 11 1.74591C12.7292 1.74591 14.2033 2.35508 15.4225 3.57341C16.6408 4.79258 17.25 6.26674 17.25 7.99591V10.4959H18.5C19.1875 10.4959 19.7763 10.7405 20.2663 11.2297C20.7554 11.7197 21 12.3084 21 12.9959V25.4959C21 26.1834 20.7554 26.7722 20.2663 27.2622C19.7763 27.7513 19.1875 27.9959 18.5 27.9959H3.5ZM7.25 10.4959H14.75V7.99591C14.75 6.95424 14.3854 6.06883 13.6562 5.33966C12.9271 4.61049 12.0417 4.24591 11 4.24591C9.95833 4.24591 9.07292 4.61049 8.34375 5.33966C7.61458 6.06883 7.25 6.95424 7.25 7.99591V10.4959ZM11 21.7459C11.6875 21.7459 12.2762 21.5013 12.7663 21.0122C13.2554 20.5222 13.5 19.9334 13.5 19.2459C13.5 18.5584 13.2554 17.9697 12.7663 17.4797C12.2762 16.9905 11.6875 16.7459 11 16.7459C10.3125 16.7459 9.72417 16.9905 9.235 17.4797C8.745 17.9697 8.5 18.5584 8.5 19.2459C8.5 19.9334 8.745 20.5222 9.235 21.0122C9.72417 21.5013 10.3125 21.7459 11 21.7459Z" fill="#333333" fill-opacity="0.75"/>
</svg>
