<svg width="80" height="81" viewBox="0 0 80 81" fill="none" xmlns="http://www.w3.org/2000/svg">
<g id="reshot-icon-map-marker-TDJ2KX5LNA 1">
<g id="row1">
<path id="nav:4" d="M40.1929 78.7661C39.9906 78.5128 39.7132 78.1638 39.3705 77.7284C38.5989 76.7479 37.4961 75.3296 36.1725 73.5793C33.5249 70.0783 29.9959 65.2517 26.4677 59.9469C22.9384 54.6404 19.4163 48.8649 16.7783 43.4648C14.1314 38.0462 12.4099 33.0744 12.4099 29.353C12.4099 14.2622 24.8667 1.95776 40.1929 1.95776C55.5191 1.95776 67.976 14.2622 67.976 29.353C67.976 33.0744 66.2544 38.0462 63.6075 43.4648C60.9695 48.8649 57.4474 54.6404 53.9181 59.9469C50.3899 65.2517 46.8609 70.0783 44.2133 73.5793C42.8897 75.3296 41.7869 76.7479 41.0153 77.7284C40.6726 78.1638 40.3952 78.5128 40.1929 78.7661ZM21.1263 28.9811C21.1263 39.3684 29.6502 47.768 40.1929 47.768C50.7378 47.768 59.2595 39.3042 59.2595 28.9191C59.2595 18.5318 50.7356 10.1322 40.1929 10.1322C29.6491 10.1322 21.1263 18.5329 21.1263 28.9811Z" fill="#0099CC" stroke="#333333"/>
</g>
</g>
</svg>
