<svg width="125" height="125" viewBox="0 0 125 125" fill="none" xmlns="http://www.w3.org/2000/svg">
<g id="business 1">
<path id="Vector" d="M66.4062 3.90625C59.9609 3.90625 54.6875 9.17969 54.6875 15.625C54.6875 15.8203 54.7383 16.0078 54.75 16.2031L25.5703 36.0859C24.2931 35.4798 22.8981 35.1624 21.4844 35.1562C18.8969 35.1645 16.4178 36.196 14.5881 38.0256C12.7585 39.8553 11.727 42.3344 11.7188 44.9219C11.7188 48.9219 14.1602 52.375 17.625 53.8789L15.3438 86.2227C13.2073 86.7298 11.3032 87.9402 9.93741 89.6595C8.57158 91.3788 7.82321 93.5073 7.8125 95.7031C7.8125 101.074 12.207 105.469 17.5781 105.469C20.1381 105.467 22.5943 104.457 24.4141 102.656L39.0781 111.445C39.114 114.011 40.1559 116.459 41.9795 118.264C43.8031 120.069 46.2625 121.085 48.8281 121.094C50.993 121.082 53.0931 120.354 54.7994 119.021C56.5057 117.689 57.722 115.828 58.2578 113.73L99.0898 104.621C99.952 106.064 101.172 107.259 102.632 108.092C104.091 108.925 105.741 109.367 107.422 109.375C112.793 109.375 117.188 104.98 117.188 99.6094C117.177 97.065 116.176 94.6248 114.397 92.806C112.618 90.9873 110.2 89.9332 107.656 89.8672L104.309 61.2344C105.835 60.3985 107.109 59.1695 108 57.6749C108.891 56.1802 109.366 54.4744 109.375 52.7344C109.375 47.3633 104.98 42.9688 99.6094 42.9688C99.0586 42.9688 98.5273 43.0391 98 43.1289L77.707 18.5625C77.9531 17.6172 78.125 16.6484 78.125 15.625C78.125 9.17969 72.8516 3.90625 66.4062 3.90625ZM66.4062 7.8125C70.7422 7.8125 74.2188 11.2891 74.2188 15.625C74.2188 19.9609 70.7422 23.4375 66.4062 23.4375C62.0703 23.4375 58.5938 19.9609 58.5938 15.625C58.5938 11.2891 62.0703 7.8125 66.4062 7.8125ZM55.6797 20.293C56.7659 22.7318 58.6489 24.7291 61.0195 25.957L51.8281 52.8242C50.5139 52.9478 49.2387 53.3378 48.0802 53.9705C46.9217 54.6031 45.9043 55.4651 45.0898 56.5039L30.4727 48.7227C30.9727 47.5508 31.25 46.2695 31.25 44.9219C31.25 42.5 30.3242 40.293 28.8477 38.582L55.6797 20.293ZM75.8672 22.4688L94.1758 44.6328C92.8455 45.5252 91.7548 46.7307 90.9994 48.1433C90.2441 49.556 89.8472 51.1325 89.8438 52.7344C89.8438 53.2422 89.9219 53.7266 90 54.2148L62.3945 61.4688C62.1937 59.6158 61.4659 57.8593 60.2972 56.4075C59.1285 54.9556 57.568 53.8693 55.8008 53.2773L64.7344 27.168C65.2852 27.2461 65.8359 27.3438 66.4062 27.3438C70.2969 27.3438 73.7344 25.4062 75.8672 22.4688ZM21.4844 39.0625C24.7422 39.0625 27.3438 41.6641 27.3438 44.9219C27.3438 48.1797 24.7422 50.7812 21.4844 50.7812C18.2266 50.7812 15.625 48.1797 15.625 44.9219C15.625 41.6641 18.2266 39.0625 21.4844 39.0625ZM99.6094 46.875C102.867 46.875 105.469 49.4766 105.469 52.7344C105.469 55.9922 102.867 58.5938 99.6094 58.5938C96.3516 58.5938 93.75 55.9922 93.75 52.7344C93.75 49.4766 96.3516 46.875 99.6094 46.875ZM28.2227 51.9492L43.3359 59.9883C43.1172 60.793 42.9688 61.6289 42.9688 62.5C42.9688 66.4727 45.3789 69.8984 48.8047 71.418L48.1328 101.633C46.3698 101.76 44.6741 102.362 43.2262 103.376C41.7783 104.39 40.6323 105.777 39.9102 107.391L26.5977 99.4141C27.0742 98.2656 27.3438 97.0234 27.3438 95.707C27.3438 90.9141 23.8359 86.918 19.2656 86.1094L21.4766 54.6875H21.4844C24.0977 54.6875 26.4648 53.6328 28.2227 51.9492ZM52.7344 56.6406C55.9922 56.6406 58.5938 59.2422 58.5938 62.5C58.5938 65.7578 55.9922 68.3594 52.7344 68.3594C49.4766 68.3594 46.875 65.7578 46.875 62.5C46.875 59.2422 49.4766 56.6406 52.7344 56.6406ZM91.3633 57.8984C92.2366 59.3001 93.451 60.4574 94.8932 61.2622C96.3353 62.0669 97.9579 62.4928 99.6094 62.5C99.9219 62.5 100.215 62.4297 100.516 62.4023L103.812 90.5625C102.002 91.2856 100.448 92.533 99.3515 94.1449C98.2547 95.7568 97.6643 97.6597 97.6562 99.6094C97.6562 100.055 97.7266 100.484 97.7852 100.914L58.4258 109.688C58.1271 107.976 57.377 106.374 56.2529 105.049C55.1289 103.724 53.6715 102.722 52.0312 102.148L52.6953 72.2656H52.7344C54.768 72.2534 56.7473 71.6071 58.3962 70.4168C60.0452 69.2265 61.2817 67.5514 61.9336 65.625L91.3633 57.8984ZM17.5781 89.8438C20.8359 89.8438 23.4375 92.4453 23.4375 95.7031C23.4375 98.9609 20.8359 101.562 17.5781 101.562C14.3203 101.562 11.7188 98.9609 11.7188 95.7031C11.7188 92.4453 14.3203 89.8438 17.5781 89.8438ZM107.422 93.75C110.68 93.75 113.281 96.3516 113.281 99.6094C113.281 102.867 110.68 105.469 107.422 105.469C104.164 105.469 101.562 102.867 101.562 99.6094C101.562 96.3516 104.164 93.75 107.422 93.75ZM48.8281 105.469C52.0859 105.469 54.6875 108.07 54.6875 111.328C54.6875 114.586 52.0859 117.188 48.8281 117.188C45.5703 117.188 42.9688 114.586 42.9688 111.328C42.9688 108.07 45.5703 105.469 48.8281 105.469Z" fill="url(#paint0_linear_163_732)"/>
</g>
<defs>
<linearGradient id="paint0_linear_163_732" x1="7.8125" y1="62.5" x2="109.375" y2="62.5" gradientUnits="userSpaceOnUse">
<stop stop-color="#000092"/>
<stop offset="1" stop-color="#0099CC"/>
</linearGradient>
</defs>
</svg>
